<svg width="3715" height="504" viewBox="0 0 3715 504" fill="none" xmlns="http://www.w3.org/2000/svg">
<g clip-path="url(#clip0_150_122)">
<path d="M465.768 380.695C440.235 423.114 405.198 454.68 361.49 476.866C334.668 490.481 306.427 499.441 276.568 503.259C271.095 503.959 268.214 501.762 268.238 496.195C268.435 449.704 268.573 403.211 269.041 356.722C269.185 342.471 282.581 328.845 296.862 326.898C306.341 325.606 315.824 326.2 325.305 326.118C341.469 325.978 357.637 326.184 373.801 326.017C392.05 325.828 404.082 313.626 404.149 295.55C404.155 293.717 404.313 291.864 404.104 290.054C403.64 286.037 404.894 283.056 408.322 280.675C412.635 277.678 414.237 273.185 413.937 268.025C413.744 264.719 411.887 262.301 409.007 261.051C406.186 259.826 404.879 262.568 403.36 264.15C393.436 274.487 383.53 284.844 373.741 295.308C369.043 300.33 363.77 302.842 356.576 302.708C334.75 302.304 312.914 302.516 291.081 302.518C282.907 302.519 276.655 299.185 272.377 292.145C264.931 279.892 271.9 263.786 286.006 260.957C288.76 260.404 291.626 260.229 294.443 260.209C308.775 260.108 323.109 259.997 337.44 260.149C342.286 260.201 346.256 258.676 349.606 255.381C355.307 249.773 360.894 244.051 366.599 238.448C368.669 236.416 369.34 234.047 369.307 231.229C369.192 221.397 369.162 211.564 369.155 201.732C369.148 193.051 373.874 188.552 382.651 187.799C409.204 185.52 426.369 199.454 439.436 220.406C449.42 236.416 452.813 254.375 453.482 272.848C454.013 287.495 453.622 302.176 453.642 316.841C453.644 318.008 453.634 319.175 453.675 320.341C453.729 321.873 453.816 323.54 455.718 323.863C457.728 324.204 458.221 322.452 458.645 321.075C460.601 314.714 462.992 308.424 464.235 301.919C468.129 281.534 469.685 260.992 465.255 240.48C459.398 213.361 444.868 191.947 421.973 176.237C415.261 171.631 414.947 171.498 418.033 164.039C429.735 135.758 419.762 111.316 396.43 90.674C364.139 62.1055 326.89 43.3409 284.294 35.979C243.792 28.9789 204.676 34.4047 167.179 51.0613C143.612 61.5304 121.535 74.4496 102.657 92.3288C88.3324 105.895 78.7673 122.121 75.0129 141.579C74.5004 144.235 73.2096 147.803 75.8131 149.48C78.6366 151.297 81.5571 148.78 83.895 147.008C90.8226 141.756 94.4331 134.278 97.1981 126.305C101.739 113.211 109.053 102.304 122.212 96.6522C137.386 90.1346 151.889 91.7206 164.953 102.058C173.486 108.809 174.287 116.015 168.041 124.932C166.969 126.462 166.747 127.789 167.365 129.554C168.628 133.161 169.664 136.848 170.799 140.5C174.757 153.232 170.538 166.106 159.94 173.628C148.983 181.406 133.44 181.76 123.467 173.871C119.96 171.096 118.134 171.323 114.82 174.188C105.682 182.089 94.3376 184.947 82.6661 186.59C79.0443 187.099 75.3487 187.09 71.7308 187.618C64.4789 188.678 59.3771 193.248 55.156 198.751C41.8773 216.06 35.3778 236.043 33.7382 257.489C32.1007 278.905 33.8755 300.087 41.9094 320.338C42.6079 322.098 42.8728 324.874 45.378 324.614C48.2811 324.313 47.8458 321.418 47.858 319.388C47.9578 302.893 47.6485 286.389 48.0499 269.902C48.6319 245.997 55.8292 224.432 72.2121 206.475C76.5027 201.773 81.2215 197.646 87.2249 195.1C101.453 189.066 114.773 194.451 119.75 209.001C123.794 220.823 129.33 231.673 137.414 241.204C137.63 241.458 137.834 241.722 138.037 241.986C147.767 254.692 159.164 262.547 176.659 260.417C188.572 258.966 200.949 259.014 213.039 260.925C222.861 262.477 230.414 271.279 230.609 281.09C230.816 291.558 224.451 299.548 214.028 301.696C211.6 302.196 209.08 302.447 206.6 302.457C185.102 302.546 163.6 302.375 142.106 302.703C136.192 302.793 131.861 300.678 128.033 296.606C117.876 285.802 107.721 274.996 97.478 264.274C95.8943 262.616 94.6375 259.546 91.4702 261.141C88.6146 262.578 87.6852 265.602 87.9181 268.392C88.363 273.722 89.3738 279.061 94.227 282.498C96.2337 283.92 96.6708 285.814 96.6911 288.132C96.7304 292.611 96.531 297.068 97.4056 301.563C100.133 315.581 111.851 325.877 126.145 325.949C149.476 326.068 172.808 325.899 196.14 325.903C217.066 325.906 231.597 340.472 231.619 361.456C231.664 403.109 231.665 444.762 231.72 486.416C231.724 489.742 232.185 493.071 232.119 496.393C232.019 501.433 229.249 503.76 224.4 503.102C175.571 496.479 131.289 478.554 93.3265 447.137C54.8148 415.265 26.7973 375.746 11.4466 327.572C3.20917 301.721 -0.635751 275.432 0.084288 248.457C2.06417 174.284 30.7005 112.318 85.9687 62.7798C118.732 33.4134 157.007 14.3503 199.875 5.57554C274.673 -9.73503 342.856 6.61523 403.178 53.041C452.42 90.9391 483.392 140.841 495.78 202.053C499.021 218.072 501.282 234.226 501.306 250.471C501.374 296.906 489.772 340.351 465.768 380.695ZM142.253 399.765C145.525 403.449 146.687 407.789 146.641 412.661C146.545 422.821 146.625 432.982 146.662 443.143C146.669 444.946 146.236 447.14 148.077 448.189C155.378 452.351 162.989 455.84 171.218 458.65C171.436 457.262 171.605 456.623 171.628 455.98C172.479 431.513 170.845 407.038 171.87 382.568C172.037 378.596 169.283 377.637 165.851 377.659C136.041 377.85 106.23 377.998 76.4203 378.208C74.8504 378.219 73.0103 377.865 71.9688 379.657C76.2601 390.708 83.5754 395.869 95.0715 395.903C107.231 395.938 119.391 395.989 131.55 395.891C135.387 395.86 138.792 396.691 142.253 399.765ZM393.241 377.774C379.263 377.838 365.286 377.932 351.309 377.952C345.987 377.96 340.658 377.601 335.346 377.783C331.583 377.912 328.576 379.257 328.593 383.997C328.676 407.486 328.677 430.975 328.643 454.464C328.638 458.015 330.04 459.058 333.247 457.588C338.546 455.161 343.769 452.558 349.136 450.296C352.689 448.798 354.11 446.551 354.017 442.626C353.783 432.802 353.929 422.97 353.945 413.141C353.963 401.357 359.268 395.97 370.888 395.948C382.383 395.927 393.884 395.686 405.37 396.012C414.216 396.264 420.265 392.275 424.747 385.122C428.173 379.657 427.247 377.826 420.663 377.733C411.836 377.608 403.006 377.723 393.241 377.774Z" fill="white"/>
<path d="M361.058 97.6663C385.045 95.5884 402.243 109.453 405.092 134.812C407.269 154.185 396.558 173.306 373.662 179.192C354.074 184.228 335.457 173.166 330.565 154.302C329.293 149.396 329.197 144.349 330.455 139.484C331.274 136.319 330.526 134.166 328.504 131.805C323.264 125.688 321.085 119.882 320.75 112.33C322.566 111.031 324.206 112.488 325.931 112.684C331.636 113.332 336.349 110.78 340.647 107.579C346.733 103.046 353.169 99.3885 361.058 97.6663Z" fill="white"/>
<path d="M274.425 92.2407C271.685 108.111 263.349 115.67 249.148 115.582C236.237 115.501 225.115 103.315 226.243 90.484C227.498 76.2054 239.42 66.2347 252.847 68.2335C265.83 70.1662 271.728 76.6115 274.425 92.2407Z" fill="white"/>
</g>
<path d="M2959.42 93C2964.23 94.6755 2967.54 97.062 2971.21 97.922C3053.26 117.179 3092.4 160.641 3100.81 244.803C3105.66 293.337 3099.27 340.174 3069.09 380.719C3044.23 414.116 3008.9 429.901 2969.14 437.566C2964.54 438.452 2960.11 440.251 2955.26 442.709C2945.09 443.791 2935.26 443.791 2923.51 442.667C2867.38 441.542 2813.19 441.542 2758.31 441.542C2758.31 352.05 2758.25 265.523 2758.34 178.996C2758.37 151.303 2758.8 123.61 2760.41 95.911C2812.88 95.9085 2863.97 95.9852 2915.06 95.7888C2919.58 95.7714 2924.09 93.9719 2928.61 93C2938.43 93 2948.26 93 2959.42 93ZM2852.12 372.736C2878.41 372.44 2904.78 373.329 2930.97 371.544C2962.64 369.386 2989.67 356.776 3005.58 327.593C3020.94 299.417 3022.03 268.77 3016.24 238.069C3008.58 197.37 2984.04 170.558 2942.71 166.077C2909.15 162.439 2874.88 165.338 2840.18 165.338C2840.29 165 2839.5 166.362 2839.49 167.728C2839.19 232.986 2839.07 298.245 2838.58 363.501C2838.52 371.944 2842.63 373.383 2852.12 372.736Z" fill="white"/>
<path d="M1215.57 93C1223.47 93 1231.36 93 1240.72 94.1383C1244.51 95.8454 1246.81 96.4782 1249.15 96.9732C1287.56 105.116 1319.6 122.381 1335.76 160.443C1354.59 204.809 1354.9 280.873 1291.61 318.512C1290.53 319.155 1289.99 320.714 1288.73 322.506C1292.6 329.644 1296.5 336.848 1300.41 344.049C1317.91 376.304 1335.41 408.558 1351.55 440.793C1324.18 440.546 1298.19 440.319 1271.77 439.152C1254.8 407.987 1237.94 377.929 1221.94 347.417C1217.92 339.748 1213.3 337.17 1204.97 337.392C1185.05 337.923 1165.1 337.563 1145.17 337.562C1131.82 337.562 1118.47 337.562 1103.98 337.562C1103.98 373.468 1103.98 406.952 1102.64 440.457C1075.17 440.52 1049.05 440.561 1022.55 439.294C1022.13 382.667 1021.99 327.349 1022.07 272.031C1022.16 212.354 1022.44 152.677 1022.64 93C1023.94 93 1025.24 93 1028.37 93.8654C1032.09 95.0792 1033.98 95.7294 1035.87 95.7319C1092.69 95.8048 1149.52 95.858 1206.34 95.712C1209.42 95.7041 1212.5 93.9443 1215.57 93ZM1104.47 257.738C1104.47 262.878 1104.47 268.018 1104.47 272.448C1143.47 272.448 1180.46 274.55 1217.09 271.826C1250.28 269.358 1265.94 247.31 1264.35 213.616C1262.94 183.912 1243.05 164.185 1211.09 163.069C1179.5 161.966 1147.86 162.533 1116.24 162.482C1112.57 162.476 1108.89 163.192 1104.47 163.65C1104.47 194.729 1104.47 224.82 1104.47 257.738Z" fill="white"/>
<path d="M666 93C738.168 93 810.336 93 883.904 94.1359C892.282 97.1679 899.292 98.9566 906.234 100.978C944.924 112.241 972.981 135.908 983.035 175.314C988.329 196.067 989.158 218.657 988.031 240.21C985.344 291.584 952.553 330.4 902.283 341.016C877.809 346.185 852.288 347.151 827.163 348.286C801.07 349.464 774.882 348.548 746.975 348.548C746.975 380.205 746.975 410.237 745.66 440.268C719.191 440.523 694.037 440.778 667.963 440.197C666.863 432.581 666.538 425.801 666.526 419.021C666.327 310.348 666.168 201.674 666 93ZM853.434 162.917C818.579 162.917 783.724 162.917 748.47 162.917C748.47 202.034 748.47 240.092 748.47 279.34C778.498 279.34 807.578 279.376 836.657 279.31C842.486 279.297 848.412 279.501 854.124 278.569C876.852 274.861 896.138 266.201 903.545 241.792C915.629 201.975 897.952 172.698 853.434 162.917Z" fill="white"/>
<path d="M1905.46 93C1913.36 93 1921.25 93 1930.58 94.136C1985.65 105.748 2024.54 132.652 2034.34 189.954C2037.01 205.586 2037.05 221.941 2036.21 237.853C2033.4 290.512 2000.91 330.187 1949.43 341.127C1925.43 346.226 1900.41 347.222 1875.77 348.307C1849.24 349.475 1822.63 348.571 1794.14 348.571C1794.14 380.594 1794.14 410.617 1792.78 440.626C1765.37 440.498 1739.31 440.384 1712.98 438.961C1712.66 322.768 1712.59 207.884 1712.53 93C1713.83 93 1715.13 93 1718.24 93.8893C1721.94 95.1458 1723.82 95.8316 1725.71 95.834C1782.56 95.9073 1839.42 95.9587 1896.27 95.8047C1899.34 95.7963 1902.4 93.9766 1905.46 93ZM1825.25 279.371C1849.08 279.27 1872.94 279.998 1896.71 278.877C1933.83 277.126 1955.07 254.711 1954.54 219.564C1954.03 185.328 1932.25 163.788 1895.73 162.851C1864.63 162.053 1833.5 162.488 1802.39 162.48C1800.16 162.48 1797.93 163.32 1795.76 163.759C1795.76 202.42 1795.76 240.109 1795.76 279.371C1805.16 279.371 1813.78 279.371 1825.25 279.371Z" fill="white"/>
<path d="M3227.01 440.65C3238.76 408.854 3250.2 376.938 3262.32 345.286C3294.27 261.857 3326.52 178.542 3358.49 94.0913C3359.62 93.0014 3360.92 93.0014 3364.04 93.8852C3402.37 95.134 3438.88 95.4988 3476.02 96.6725C3511.32 186.999 3546.11 276.471 3580.59 366.062C3590.12 390.828 3598.74 415.947 3606.34 440.905C3577.76 440.584 3550.62 440.263 3523.09 438.917C3517.39 423.297 3512.73 408.411 3506.39 394.279C3504.4 389.844 3497.93 384.598 3493.44 384.537C3442.83 383.851 3392.21 383.856 3341.6 384.528C3337.09 384.588 3330.58 389.672 3328.59 394.054C3321.78 409.056 3316.57 424.786 3309.44 440.331C3281.08 440.499 3254.05 440.575 3227.01 440.65ZM3472.48 301.82C3457.96 261.599 3443.65 221.297 3428.6 181.277C3427.01 177.045 3420.91 171.747 3417.09 171.884C3413.16 172.024 3408.13 177.562 3405.92 181.922C3401.78 190.098 3399.3 199.123 3396.16 207.803C3382.61 245.17 3369.07 282.54 3355.34 320.412C3397.09 320.412 3437.52 320.412 3479.15 320.412C3476.88 313.977 3475.12 308.99 3472.48 301.82Z" fill="#A855F7"/>
<path d="M2259.18 93C2268.04 93 2276.9 93 2287.21 94.1339C2330.39 103.731 2365.92 120.95 2383.73 162.949C2394.05 187.29 2395.39 212.926 2393.12 238.741C2389.59 278.925 2372.53 311.036 2334.76 330.351C2332.02 331.489 2330.14 332.775 2327.28 334.515C2317.83 337.728 2309.37 340.487 2300.05 342.856C2297.56 343.237 2295.92 344.009 2293.18 344.859C2289.17 345.35 2286.26 345.762 2282.17 345.688C2273.34 346.293 2265.7 347.385 2256.76 348.477C2221.32 348.477 2187.16 348.477 2150.97 348.477C2150.97 380.91 2150.97 410.861 2149.6 440.773C2123.1 440.734 2097.96 440.734 2071.35 440.734C2071.35 434.265 2071.35 429.061 2071.35 423.856C2071.35 344.164 2071.29 264.472 2071.39 184.781C2071.42 155.161 2071.84 125.542 2073.46 95.915C2131.25 95.9056 2187.68 95.9776 2244.1 95.7767C2249.13 95.7588 2254.15 93.9676 2259.18 93ZM2184.77 279.373C2208.1 279.252 2231.48 280.027 2254.76 278.796C2288.28 277.023 2309 257.39 2311.29 227.238C2313.84 193.686 2298.25 168.14 2266.03 164.937C2228.73 161.229 2190.78 164.074 2153.1 164.074C2153.1 202.492 2153.1 240.579 2153.1 279.373C2163.49 279.373 2172.7 279.373 2184.77 279.373Z" fill="white"/>
<path d="M3709.12 93C3710.41 93 3711.71 93 3713.56 93.6684C3714.29 94.8349 3714.46 95.3329 3714.59 97.206C3714.53 158.743 3714.6 218.906 3714.49 279.068C3714.39 332.907 3714.1 386.745 3712.59 440.646C3686.17 440.709 3661.06 440.709 3636.5 440.709C3636.5 324.082 3636.5 209.467 3636.5 93C3661.54 93 3685.33 93 3709.12 93Z" fill="#A855F7"/>
<path d="M1384.94 97.2985C1480.72 95.9489 1576.22 95.9422 1673.08 95.9365C1674.44 116.766 1674.44 137.595 1674.44 159.982C1605.08 159.982 1536.19 159.982 1466.25 159.982C1466.25 186.091 1466.25 210.65 1466.25 236.518C1533.05 236.518 1599.55 236.518 1666.91 236.518C1666.91 256.531 1666.91 275.256 1666.91 295.224C1600.36 295.224 1534.31 295.224 1466.73 295.224C1466.73 321.784 1466.73 347.144 1466.73 374.188C1535.74 374.188 1604.61 374.188 1675.11 374.188C1675.11 396.596 1675.11 417.383 1674.81 439.511C1578.37 440.852 1482.22 440.852 1384.65 440.852C1384.65 325.9 1384.65 212.271 1384.94 97.2985Z" fill="white"/>
<path d="M2427.36 97.0065C2523.72 95.7814 2619.55 95.8569 2716.75 95.929C2718.11 116.751 2718.11 137.577 2718.11 159.961C2648.77 159.961 2579.88 159.961 2509.99 159.961C2509.99 186.095 2509.99 210.677 2509.99 236.558C2576.79 236.558 2643.29 236.558 2710.65 236.558C2710.65 256.55 2710.65 275.265 2710.65 295.21C2644.1 295.21 2578.05 295.21 2510.49 295.21C2510.49 321.764 2510.49 347.133 2510.49 374.187C2579.4 374.187 2648.27 374.187 2718.79 374.187C2718.79 396.585 2718.79 417.367 2718.42 439.468C2622.43 440.799 2526.82 440.81 2429.84 440.995C2427.85 437.91 2426.72 434.65 2426.72 431.39C2426.69 320.363 2426.77 209.335 2427.36 97.0065Z" fill="white"/>
<defs>
<clipPath id="clip0_150_122">
<rect width="501.3" height="503.38" fill="white"/>
</clipPath>
</defs>
</svg>
