<svg xmlns="http://www.w3.org/2000/svg" xmlns:xlink="http://www.w3.org/1999/xlink" version="1.1" id="Layer_1" x="0px" y="0px" enable-background="new 0 0 1024 1024" xml:space="preserve" viewBox="271.71 269.73 501.3 503.38">
<path fill="#fff" opacity="1.000000" stroke="none" d=" M737.478394,650.425659   C711.945923,692.844421 676.909424,724.410400 633.202271,746.595642   C606.379700,760.210449 578.139160,769.171143 548.280640,772.988647   C542.807190,773.688477 539.926941,771.491272 539.950623,765.925110   C540.147949,719.433960 540.285400,672.941772 540.754028,626.453125   C540.897644,612.202148 554.293884,598.576355 568.574463,596.629578   C578.053223,595.337402 587.536560,595.930969 597.016785,595.848877   C613.181396,595.708984 629.349121,595.915161 645.513184,595.748230   C663.761230,595.559753 675.793640,583.357849 675.860107,565.281738   C675.866821,563.448608 676.024231,561.595642 675.815247,559.786133   C675.351196,555.768372 676.605347,552.788086 680.033386,550.406555   C684.346436,547.410217 685.948486,542.917114 685.648132,537.757202   C685.455627,534.450867 683.598022,532.032837 680.718689,530.782898   C677.897644,529.558289 676.590210,532.300293 675.071411,533.882202   C665.147278,544.219177 655.241577,554.575378 645.452332,565.039795   C640.754395,570.061829 635.481323,572.573364 628.287415,572.440002   C606.462463,572.035339 584.625854,572.248047 562.793762,572.249634   C554.619446,572.250244 548.368103,568.916870 544.089844,561.876526   C536.643982,549.623413 543.612854,533.518188 557.718445,530.688660   C560.472046,530.136230 563.338745,529.961365 566.155579,529.941467   C580.487549,529.840027 594.821533,529.728638 609.152039,529.881348   C613.997498,529.932922 617.968079,528.408081 621.317993,525.112854   C627.018494,519.505371 632.606079,513.783081 638.311035,508.180267   C640.380249,506.148163 641.051270,503.778961 641.018433,500.961212   C640.903992,491.129700 640.873901,481.296936 640.866577,471.464600   C640.860107,462.783844 645.585266,458.284424 654.362854,457.531311   C680.914917,455.253174 698.080322,469.186401 711.146851,490.138763   C721.130798,506.148193 724.523499,524.107300 725.192749,542.579712   C725.723572,557.226807 725.333069,571.907227 725.353394,586.572876   C725.354980,587.739380 725.344727,588.906799 725.385864,590.072144   C725.440002,591.604553 725.527222,593.271240 727.428589,593.594055   C729.439148,593.935425 729.931824,592.183411 730.355408,590.806030   C732.311462,584.445374 734.703125,578.155334 735.945618,571.650269   C739.839355,551.265320 741.395630,530.723572 736.965515,510.211945   C731.108459,483.093140 716.578796,461.679321 693.684265,445.969330   C686.972351,441.363647 686.657837,441.231079 689.744446,433.771729   C701.446167,405.491333 691.473450,381.049866 668.141296,360.407623   C635.850464,331.839447 598.602112,313.074982 556.006836,305.713165   C515.504822,298.713104 476.389648,304.138916 438.893097,320.795349   C415.325684,331.264282 393.249420,344.183350 374.371277,362.062439   C360.046844,375.628876 350.481842,391.854370 346.727478,411.312378   C346.214966,413.968475 344.924164,417.536346 347.527649,419.212616   C350.351105,421.030548 353.271637,418.513306 355.609467,416.741089   C362.536987,411.489532 366.147461,404.011505 368.912476,396.037964   C373.452942,382.944519 380.767212,372.037964 393.926056,366.385742   C409.099518,359.868195 423.603119,361.454224 436.666992,371.791107   C445.199768,378.542755 446.000427,385.747986 439.755035,394.665192   C438.683105,396.195770 438.460358,397.522766 439.078522,399.287506   C440.341980,402.894348 441.377991,406.580750 442.513062,410.232727   C446.470490,422.965515 442.251770,435.838531 431.653717,443.361237   C420.696869,451.138641 405.153839,451.493256 395.181030,443.603485   C391.673798,440.828827 389.848236,441.055878 386.534332,443.921173   C377.396637,451.821930 366.051941,454.680176 354.380554,456.322510   C350.758881,456.832123 347.063263,456.822388 343.445404,457.350952   C336.193542,458.410431 331.091797,462.981049 326.870819,468.483124   C313.592163,485.792053 307.092773,505.775665 305.453156,527.220825   C303.815735,548.636963 305.590485,569.818115 313.624298,590.069153   C314.322754,591.829712 314.587646,594.604980 317.092865,594.345459   C319.995941,594.044739 319.560608,591.149353 319.572876,589.119751   C319.672638,572.624329 319.363312,556.120911 319.764740,539.634216   C320.346771,515.728821 327.543915,494.164581 343.926727,476.207855   C348.217255,471.505096 352.936005,467.378204 358.939362,464.832275   C373.166962,458.798553 386.487152,464.183289 391.464508,478.733612   C395.508545,490.555450 401.043793,501.405518 409.128143,510.936249   C409.343628,511.190308 409.548309,511.453888 409.750885,511.718475   C419.480469,524.424316 430.877808,532.278625 448.372864,530.148499   C460.285583,528.698181 472.662079,528.746399 484.752258,530.657166   C494.573730,532.209412 502.127533,541.011108 502.321777,550.821594   C502.529053,561.289978 496.163849,569.279724 485.740784,571.427490   C483.313629,571.927551 480.792786,572.178284 478.313629,572.188538   C456.815338,572.277710 435.314056,572.106873 413.820038,572.434570   C407.906036,572.524719 403.575043,570.409485 399.746979,566.337585   C389.590118,555.533875 379.434784,544.728149 369.192352,534.005859   C367.608673,532.348022 366.351929,529.278076 363.184601,530.872620   C360.329071,532.310242 359.399689,535.333984 359.632538,538.123718   C360.077454,543.454041 361.088287,548.792664 365.941345,552.229980   C367.948120,553.651367 368.385162,555.546204 368.405487,557.863647   C368.444794,562.342896 368.245331,566.799500 369.119965,571.294739   C371.847168,585.312012 383.564758,595.608398 397.859314,595.680847   C421.190002,595.799011 444.522034,595.630310 467.853485,595.634094   C488.778900,595.637512 503.310059,610.203186 503.332489,631.187134   C503.377075,672.839844 503.378113,714.492615 503.433136,756.145325   C503.437561,759.471619 503.898010,762.801025 503.832092,766.122803   C503.732086,771.162170 500.961823,773.489441 496.112671,772.831726   C447.284546,766.208862 403.002747,748.283508 365.040924,716.866699   C326.529602,684.995117 298.512360,645.476807 283.161835,597.303284   C274.924438,571.452332 271.079559,545.163391 271.799591,518.189270   C273.779449,444.016937 302.415497,382.051819 357.683136,332.513702   C390.445740,303.147583 428.721069,284.084717 471.588867,275.309998   C546.385559,259.999573 614.568054,276.349670 674.889526,322.774994   C724.131042,360.672729 755.102905,410.574097 767.490173,471.785400   C770.731812,487.803955 772.992432,503.957825 773.016174,520.203125   C773.083984,566.637817 761.482849,610.081787 737.478394,650.425659  M413.967377,669.495850   C417.239197,673.179688 418.401093,677.519897 418.354919,682.391602   C418.258606,692.551147 418.338562,702.712585 418.376099,712.873047   C418.382751,714.676025 417.949921,716.869995 419.790436,717.919067   C427.092102,722.080994 434.702850,725.569824 442.931854,728.380127   C443.149902,726.992126 443.318939,726.353577 443.341339,725.709900   C444.192719,701.243286 442.558960,676.768555 443.584106,652.299194   C443.750580,648.326355 440.997070,647.368347 437.564545,647.390198   C407.754700,647.580505 377.944550,647.729126 348.134827,647.938538   C346.565002,647.949524 344.724884,647.596069 343.683441,649.387695   C347.974640,660.438843 355.289886,665.599976 366.785889,665.633362   C378.945221,665.668640 391.105225,665.720154 403.263794,665.621582   C407.101135,665.590515 410.505585,666.421936 413.967377,669.495850  M664.952271,647.504700   C650.975037,647.569092 636.997925,647.662659 623.020630,647.682983   C617.699036,647.690735 612.370422,647.331421 607.057861,647.513916   C603.295349,647.643127 600.288147,648.988159 600.304871,653.727539   C600.388000,677.216064 600.389038,700.705017 600.355042,724.193665   C600.349915,727.744995 601.751648,728.787964 604.959473,727.318420   C610.257935,724.891052 615.481201,722.288391 620.848328,720.025879   C624.400635,718.528503 625.821716,716.281311 625.728394,712.355896   C625.494934,702.532776 625.641113,692.700378 625.656494,682.871704   C625.674866,671.087952 630.979919,665.700867 642.599670,665.678955   C654.094238,665.657227 665.595825,665.416992 677.081055,665.742981   C685.927002,665.994202 691.976685,662.005432 696.458557,654.853271   C699.883667,649.387390 698.958435,647.556519 692.374573,647.463623   C683.547485,647.339050 674.717041,647.453430 664.952271,647.504700  z"/>
<path fill="#fff" opacity="1.000000" stroke="none" d=" M632.768799,367.400391   C656.756165,365.322510 673.954102,379.187408 676.803345,404.545380   C678.980103,423.918213 668.268494,443.039734 645.373108,448.925751   C625.785278,453.961395 607.168213,442.899689 602.276611,424.035339   C601.004517,419.129700 600.908325,414.082367 602.166565,409.217987   C602.985413,406.052246 602.237793,403.899994 600.215271,401.538788   C594.975647,395.421844 592.796814,389.616119 592.461670,382.063995   C594.277161,380.765137 595.917786,382.221863 597.643005,382.417938   C603.347107,383.066193 608.060730,380.514374 612.358948,377.312714   C618.444580,372.779724 624.880249,369.122559 632.768799,367.400391  z"/>
<path fill="#fff" opacity="1.000000" stroke="none" d=" M546.137573,361.974701   C543.396729,377.845184 535.060974,385.403778 520.860779,385.315369   C507.949463,385.234985 496.827637,373.048767 497.955658,360.218079   C499.210968,345.939545 511.132416,335.968964 524.559570,337.967773   C537.542358,339.900421 543.440613,346.345703 546.137573,361.974701  z"/>
</svg>